<svg width="32" height="32" viewBox="0 0 32 32" xmlns="http://www.w3.org/2000/svg">
<defs><radialGradient id="bB" cx="0.5" cy="0.4" r="0.7">
<stop offset="0" stop-color="#a06fe0"/><stop offset="1" stop-color="#5a2a99"/>
</radialGradient></defs>
<ellipse cx="16" cy="26.5" rx="7" ry="1.8" fill="#000000" opacity="0.2"/>
<path d="M16 16 L2.5 8.5 Q6 16 4 19.5 Q9.5 16.5 16 18 Z" fill="#6633aa" stroke="#442277" stroke-width="1"/>
<path d="M16 16 L29.5 8.5 Q26 16 28 19.5 Q22.5 16.5 16 18 Z" fill="#6633aa" stroke="#442277" stroke-width="1"/>
<polygon points="12,11 11,5.5 14.5,10" fill="#5a2a99"/><polygon points="20,11 21,5.5 17.5,10" fill="#5a2a99"/>
<ellipse cx="16" cy="16" rx="6.5" ry="5.5" fill="url(#bB)" stroke="#442277" stroke-width="1.2"/>
<circle cx="13" cy="15" r="1.8" fill="#ff5252"/><circle cx="19" cy="15" r="1.8" fill="#ff5252"/>
<circle cx="13" cy="14.6" r="0.7" fill="#fff" opacity="0.85"/><circle cx="19" cy="14.6" r="0.7" fill="#fff" opacity="0.85"/>
</svg>
