<svg width="96" height="96" viewBox="0 0 96 96" xmlns="http://www.w3.org/2000/svg">
<defs>
<radialGradient id="bdy" cx="0.5" cy="0.4" r="0.7"><stop offset="0" stop-color="#4a2070"/><stop offset="1" stop-color="#1a0828"/></radialGradient>
<radialGradient id="eye" cx="0.5" cy="0.5" r="0.5"><stop offset="0" stop-color="#ff8080"/><stop offset="1" stop-color="#cc0000"/></radialGradient>
</defs>
<ellipse cx="48" cy="82" rx="30" ry="6" fill="#000000" opacity="0.3"/>
<path d="M14 62 Q8 74 12 84" stroke="#6633aa" stroke-width="3" fill="none" opacity="0.8"/>
<path d="M82 62 Q88 74 84 84" stroke="#6633aa" stroke-width="3" fill="none" opacity="0.8"/>
<ellipse cx="48" cy="56" rx="30" ry="22" fill="url(#bdy)" stroke="#7a3fc0" stroke-width="2"/>
<rect x="34" y="58" width="28" height="6" rx="3" fill="#8855cc" opacity="0.6"/>
<circle cx="48" cy="38" r="17" fill="url(#bdy)" stroke="#7a3fc0" stroke-width="2"/>
<polygon points="28,16 48,1 68,16 62,32 34,32" fill="#2a1040" stroke="#8855cc" stroke-width="1.5"/>
<circle cx="48" cy="4" r="3.5" fill="#cc66ff"/>
<circle cx="34" cy="14" r="2" fill="#aa44ff" opacity="0.9"/><circle cx="62" cy="14" r="2" fill="#aa44ff" opacity="0.9"/>
<circle cx="40" cy="37" r="5" fill="url(#eye)"/><circle cx="56" cy="37" r="5" fill="url(#eye)"/>
<circle cx="40" cy="37" r="2" fill="#fff" opacity="0.7"/><circle cx="56" cy="37" r="2" fill="#fff" opacity="0.7"/>
<path d="M42 47 Q48 50 54 47" stroke="#8855cc" stroke-width="2" fill="none"/>
</svg>
