<svg width="32" height="32" viewBox="0 0 32 32" xmlns="http://www.w3.org/2000/svg">
<defs>
<radialGradient id="pHead" cx="0.4" cy="0.35" r="0.75">
<stop offset="0" stop-color="#9fe4ff"/><stop offset="0.6" stop-color="#4ec4fa"/><stop offset="1" stop-color="#2a7fd0"/>
</radialGradient>
<linearGradient id="pRobe" x1="0" y1="0" x2="0" y2="1">
<stop offset="0" stop-color="#5b8def"/><stop offset="1" stop-color="#7c4dff"/>
</linearGradient>
</defs>
<ellipse cx="16" cy="29.5" rx="8" ry="2.4" fill="#000000" opacity="0.25"/>
<path d="M16 11 C8.5 11 7.5 28 8.5 29 L23.5 29 C24.5 28 23.5 11 16 11 Z" fill="url(#pRobe)" stroke="#3a2a7a" stroke-width="1"/>
<circle cx="10" cy="25.5" r="1" fill="#ffd54f"/>
<circle cx="22" cy="23.5" r="0.8" fill="#e1f5fe"/>
<circle cx="16" cy="11" r="8" fill="url(#pHead)" stroke="#2a9fd6" stroke-width="1.4"/>
<polygon points="16,1 12,10.5 20,10.5" fill="#5b8def" stroke="#3a2a7a" stroke-width="1"/>
<circle cx="16" cy="2.2" r="1.6" fill="#ffd54f"/>
<ellipse cx="16" cy="12.5" rx="5" ry="4" fill="#16203a" opacity="0.5"/>
<circle cx="13" cy="12.5" r="1.7" fill="#aef0ff"/>
<circle cx="19" cy="12.5" r="1.7" fill="#aef0ff"/>
<ellipse cx="12.5" cy="7.5" rx="2.4" ry="1.4" fill="#ffffff" opacity="0.45"/>
</svg>
